<svg width="29" height="29" viewBox="0 0 29 29" fill="none" xmlns="http://www.w3.org/2000/svg">
<path d="M17.2734 1.2666C21.6521 5.72636 13.6245 13.608 13.6245 13.608L7.38086 19.7382C6.4889 20.614 4.72121 20.5978 4.72121 20.5978L3.82926 21.4735L7.33223 25.0413L8.22418 24.1656C8.22418 24.1656 8.24039 22.3979 9.13234 21.5221L10.2919 20.3837C10.0162 21.5302 10.1832 22.5925 10.8838 23.306C12.4602 24.9115 15.5625 23.9677 18.4168 21.1653C21.271 18.3629 22.2716 15.2784 20.6953 13.6729C20.1698 13.1377 19.3768 12.8653 18.493 12.8571C21.2499 11.0262 25.155 9.29416 27.7823 11.97L28.6742 11.0943L18.1653 0.390862L17.2734 1.2666ZM17.2783 20.0058C15.2268 22.02 12.9207 22.8827 12.1326 22.08C11.3444 21.2772 12.2493 18.9873 14.3008 16.9731C16.3523 14.9589 18.6584 14.0962 19.4466 14.8989C20.2347 15.7017 19.3298 17.9916 17.2783 20.0058Z" fill="#9C5D9C"/>
</svg>
