<svg width="36" height="34" viewBox="0 0 36 34" fill="none" xmlns="http://www.w3.org/2000/svg">
<g clip-path="url(#clip0_1_74)">
<path d="M6.61995 19.4072C6.13963 19.8643 5.78793 20.4171 5.64221 20.9441C5.49649 21.4711 5.56869 21.929 5.84293 22.2172L7.91101 24.3905C8.39133 23.9334 8.96092 23.6095 9.49448 23.4901C10.028 23.3707 10.4819 23.4655 10.7561 23.7537C11.0303 24.0419 11.1025 24.4999 10.9568 25.0269C10.8111 25.5538 10.4594 26.1067 9.97908 26.5637L12.0471 28.737C12.3214 29.0252 12.7752 29.12 13.3088 29.0006C13.8423 28.8812 14.4119 28.5573 14.8922 28.1003L29.3807 14.3131C29.861 13.856 30.2127 13.3032 30.3584 12.7762C30.5041 12.2492 30.4319 11.7913 30.1577 11.5031L28.0896 9.32982C27.6093 9.78689 27.0397 10.1108 26.5061 10.2302C25.9726 10.3496 25.5188 10.2548 25.2445 9.96658C24.9703 9.67839 24.8981 9.22043 25.0438 8.69345C25.1895 8.16646 25.5412 7.61363 26.0215 7.15656L23.9535 4.98329C23.6792 4.6951 23.2254 4.60028 22.6919 4.7197C22.1583 4.83911 21.5887 5.16298 21.1084 5.62005L6.61995 19.4072ZM7.65399 20.4938L22.1424 6.70668L23.4556 8.08671C22.6999 9.54096 22.6941 10.913 23.4335 11.69C24.1728 12.4669 25.5435 12.5292 27.0334 11.8465L28.3466 13.2265L13.8582 27.0136L12.545 25.6336C13.3007 24.1793 13.3065 22.8073 12.5671 22.0303C11.8278 21.2534 10.4572 21.1911 8.96721 21.8738L7.65399 20.4938Z" fill="#9C5D9C"/>
</g>
<defs>
<clipPath id="clip0_1_74">
<rect width="30" height="18" fill="white" transform="translate(0.929749 20.6807) rotate(-43.5792)"/>
</clipPath>
</defs>
</svg>
