<svg width="26" height="26" viewBox="0 0 26 26" fill="none" xmlns="http://www.w3.org/2000/svg">
<path d="M14.2734 1.2666C18.6521 5.72636 10.6245 13.608 10.6245 13.608L4.38086 19.7382C3.4889 20.614 1.72121 20.5978 1.72121 20.5978L0.829262 21.4735L4.33223 25.0413L5.22418 24.1656C5.22418 24.1656 5.24039 22.3979 6.13234 21.5221L7.29188 20.3837C7.01619 21.5302 7.18323 22.5925 7.88382 23.306C9.46016 24.9115 12.5625 23.9677 15.4168 21.1653C18.271 18.3629 19.2716 15.2784 17.6953 13.6729C17.1698 13.1377 16.3768 12.8653 15.493 12.8571C18.2499 11.0262 22.155 9.29416 24.7823 11.97L25.6742 11.0943L15.1653 0.390862L14.2734 1.2666ZM14.2783 20.0058C12.2268 22.02 9.92072 22.8827 9.13255 22.08C8.34439 21.2772 9.2493 18.9873 11.3008 16.9731C13.3523 14.9589 15.6584 14.0962 16.4466 14.8989C17.2347 15.7017 16.3298 17.9916 14.2783 20.0058Z" fill="#9C5D9C"/>
</svg>
